HIERARCHY
ROOT Hips
{
	OFFSET -14.64140 90.27770 -84.91600
	CHANNELS 6 Xposition Yposition Zposition Zrotation Xrotation Yrotation
	JOINT Spine
	{
		OFFSET 0.00000 13.20850 -1.60436
		CHANNELS 3 Zrotation Xrotation Yrotation
		JOINT Spine1
		{
			OFFSET 0.00000 8.61716 0.00000
			CHANNELS 3 Zrotation Xrotation Yrotation
			JOINT Spine2
			{
				OFFSET 0.00000 8.61717 0.00000
				CHANNELS 3 Zrotation Xrotation Yrotation
				JOINT Spine3
				{
					OFFSET 0.00000 8.61717 0.00000
					CHANNELS 3 Zrotation Xrotation Yrotation
					JOINT Neck
					{
						OFFSET 0.00000 11.07920 1.10792
						CHANNELS 3 Zrotation Xrotation Yrotation
						JOINT Neck1
						{
							OFFSET 0.00000 7.08032 0.00000
							CHANNELS 3 Zrotation Xrotation Yrotation
							JOINT Head
							{
								OFFSET 0.00000 7.08031 0.00000
								CHANNELS 3 Zrotation Xrotation Yrotation
								End site
								{
									OFFSET 0.00000 0.00000 0.00000
								}
							}
						}
					}
					JOINT RightShoulder
					{
						OFFSET -0.01000 7.91373 5.19711
						CHANNELS 3 Zrotation Xrotation Yrotation
						JOINT RightArm
						{
							OFFSET -18.41580 0.00000 0.00000
							CHANNELS 3 Zrotation Xrotation Yrotation
							JOINT RightForeArm
							{
								OFFSET -29.11090 0.00000 0.00000
								CHANNELS 3 Zrotation Xrotation Yrotation
								JOINT RightHand
								{
									OFFSET -24.65040 0.00000 0.00000
									CHANNELS 3 Zrotation Xrotation Yrotation
									JOINT RightHandThumb1
									{
										OFFSET -5.35114 -0.85590 3.97906
										CHANNELS 3 Zrotation Xrotation Yrotation
										JOINT RightHandThumb2
										{
											OFFSET -4.52789 0.00000 0.00000
											CHANNELS 3 Zrotation Xrotation Yrotation
											JOINT RightHandThumb3
											{
												OFFSET -2.46976 0.00000 0.00000
												CHANNELS 3 Zrotation Xrotation Yrotation
												End site
												{
													OFFSET 0.00000 0.00000 0.00000
												}
											}
										}
									}
									JOINT RightHandIndex1
									{
										OFFSET -14.26970 0.00000 2.88139
										CHANNELS 3 Zrotation Xrotation Yrotation
										JOINT RightHandIndex2
										{
											OFFSET -5.48836 0.00000 0.00000
											CHANNELS 3 Zrotation Xrotation Yrotation
											JOINT RightHandIndex3
											{
												OFFSET -3.01859 0.00000 0.00000
												CHANNELS 3 Zrotation Xrotation Yrotation
												End site
												{
													OFFSET 0.00000 0.00000 0.00000
												}
											}
										}
									}
									JOINT RightHandMiddle1
									{
										OFFSET -14.26970 0.00000 -0.09147
										CHANNELS 3 Zrotation Xrotation Yrotation
										JOINT RightHandMiddle2
										{
											OFFSET -6.17441 0.00000 0.00000
											CHANNELS 3 Zrotation Xrotation Yrotation
											JOINT RightHandMiddle3
											{
												OFFSET -3.56743 0.00000 0.00000
												CHANNELS 3 Zrotation Xrotation Yrotation
												End site
												{
													OFFSET 0.00000 0.00000 0.00000
												}
											}
										}
									}
									JOINT RightHandRing1
									{
										OFFSET -12.69180 0.00000 -3.06433
										CHANNELS 3 Zrotation Xrotation Yrotation
										JOINT RightHandRing2
										{
											OFFSET -5.62556 0.00000 0.00000
											CHANNELS 3 Zrotation Xrotation Yrotation
											JOINT RightHandRing3
											{
												OFFSET -3.56744 0.00000 0.00000
												CHANNELS 3 Zrotation Xrotation Yrotation
												End site
												{
													OFFSET 0.00000 0.00000 0.00000
												}
											}
										}
									}
									JOINT RightHandPinky1
									{
										OFFSET -11.11390 0.00000 -6.03719
										CHANNELS 3 Zrotation Xrotation Yrotation
										JOINT RightHandPinky2
										{
											OFFSET -4.52789 0.00000 0.00000
											CHANNELS 3 Zrotation Xrotation Yrotation
											JOINT RightHandPinky3
											{
												OFFSET -2.46976 0.00000 0.00000
												CHANNELS 3 Zrotation Xrotation Yrotation
												End site
												{
													OFFSET 0.00000 0.00000 0.00000
												}
											}
										}
									}
								}
							}
						}
					}
					JOINT LeftShoulder
					{
						OFFSET 0.01000 7.91373 5.19711
						CHANNELS 3 Zrotation Xrotation Yrotation
						JOINT LeftArm
						{
							OFFSET 18.41580 0.00000 0.00000
							CHANNELS 3 Zrotation Xrotation Yrotation
							JOINT LeftForeArm
							{
								OFFSET 29.11090 0.00000 0.00000
								CHANNELS 3 Zrotation Xrotation Yrotation
								JOINT LeftHand
								{
									OFFSET 24.65040 0.00000 0.00000
									CHANNELS 3 Zrotation Xrotation Yrotation
									JOINT LeftHandThumb1
									{
										OFFSET 5.35114 -0.85590 3.97906
										CHANNELS 3 Zrotation Xrotation Yrotation
										JOINT LeftHandThumb2
										{
											OFFSET 4.52789 0.00000 0.00000
											CHANNELS 3 Zrotation Xrotation Yrotation
											JOINT LeftHandThumb3
											{
												OFFSET 2.46977 0.00000 0.00000
												CHANNELS 3 Zrotation Xrotation Yrotation
												End site
												{
													OFFSET 0.00000 0.00000 0.00000
												}
											}
										}
									}
									JOINT LeftHandIndex1
									{
										OFFSET 14.26970 0.00000 2.88139
										CHANNELS 3 Zrotation Xrotation Yrotation
										JOINT LeftHandIndex2
										{
											OFFSET 5.48836 0.00000 0.00000
											CHANNELS 3 Zrotation Xrotation Yrotation
											JOINT LeftHandIndex3
											{
												OFFSET 3.01859 0.00000 0.00000
												CHANNELS 3 Zrotation Xrotation Yrotation
												End site
												{
													OFFSET 0.00000 0.00000 0.00000
												}
											}
										}
									}
									JOINT LeftHandMiddle1
									{
										OFFSET 14.26970 0.00000 -0.09147
										CHANNELS 3 Zrotation Xrotation Yrotation
										JOINT LeftHandMiddle2
										{
											OFFSET 6.17440 0.00000 0.00000
											CHANNELS 3 Zrotation Xrotation Yrotation
											JOINT LeftHandMiddle3
											{
												OFFSET 3.56744 0.00000 0.00000
												CHANNELS 3 Zrotation Xrotation Yrotation
												End site
												{
													OFFSET 0.00000 0.00000 0.00000
												}
											}
										}
									}
									JOINT LeftHandRing1
									{
										OFFSET 12.69180 0.00000 -3.06433
										CHANNELS 3 Zrotation Xrotation Yrotation
										JOINT LeftHandRing2
										{
											OFFSET 5.62556 0.00000 0.00000
											CHANNELS 3 Zrotation Xrotation Yrotation
											JOINT LeftHandRing3
											{
												OFFSET 3.56744 0.00000 0.00000
												CHANNELS 3 Zrotation Xrotation Yrotation
												End site
												{
													OFFSET 0.00000 0.00000 0.00000
												}
											}
										}
									}
									JOINT LeftHandPinky1
									{
										OFFSET 11.11390 0.00000 -6.03719
										CHANNELS 3 Zrotation Xrotation Yrotation
										JOINT LeftHandPinky2
										{
											OFFSET 4.52789 0.00000 0.00000
											CHANNELS 3 Zrotation Xrotation Yrotation
											JOINT LeftHandPinky3
											{
												OFFSET 2.46976 0.00000 0.00000
												CHANNELS 3 Zrotation Xrotation Yrotation
												End site
												{
													OFFSET 0.00000 0.00000 0.00000
												}
											}
										}
									}
								}
							}
						}
					}
					JOINT pCube4
					{
						OFFSET 0.00000 10.91090 1.10792
						CHANNELS 3 Zrotation Xrotation Yrotation
						End site
						{
							OFFSET 0.00000 0.00000 0.00000
						}
					}
				}
			}
		}
	}
	JOINT RightUpLeg
	{
		OFFSET -9.98441 0.00000 0.00000
		CHANNELS 3 Zrotation Xrotation Yrotation
		JOINT RightLeg
		{
			OFFSET 0.00000 -42.11790 0.00000
			CHANNELS 3 Zrotation Xrotation Yrotation
			JOINT RightFoot
			{
				OFFSET 0.00000 -45.00020 -0.00001
				CHANNELS 3 Zrotation Xrotation Yrotation
				JOINT RightForeFoot
				{
					OFFSET 0.00000 -3.74820 0.00000
					CHANNELS 3 Zrotation Xrotation Yrotation
					JOINT RightToeBase
					{
						OFFSET 0.00000 0.06325 14.43120
						CHANNELS 3 Zrotation Xrotation Yrotation
						End site
						{
							OFFSET 0.00000 0.00000 0.00000
						}
					}
				}
			}
		}
	}
	JOINT LeftUpLeg
	{
		OFFSET 9.98441 0.00000 0.00000
		CHANNELS 3 Zrotation Xrotation Yrotation
		JOINT LeftLeg
		{
			OFFSET 0.00000 -42.11800 0.00000
			CHANNELS 3 Zrotation Xrotation Yrotation
			JOINT LeftFoot
			{
				OFFSET 0.00000 -45.00070 0.00000
				CHANNELS 3 Zrotation Xrotation Yrotation
				JOINT LeftForeFoot
				{
					OFFSET 0.00000 -3.74824 0.00000
					CHANNELS 3 Zrotation Xrotation Yrotation
					JOINT LeftToeBase
					{
						OFFSET 0.00000 0.06325 14.43110
						CHANNELS 3 Zrotation Xrotation Yrotation
						End site
						{
							OFFSET 0.00000 0.00000 0.00000
						}
					}
				}
			}
		}
	}
}
MOTION
Frames: 4
Frame Time: 0.050000
-0.006483759491181448 0.0003731550536487904 0.020178462411748463 0.03121846753334226 0.04963392556126822 -0.015057573120107122 -1.3417202395075911 0.7880495618851714 -1.2510935505209737 -0.21513599604853495 3.769944261248142 0.22615958958129773 -0.5618068226819857 -1.8819496749029758 0.541642450041489 -1.1443540411581414 -1.214986902564195 -0.45208864267755544 -0.40229649416277974 12.109720315546642 -0.5319685722479925 0.5773732354975303 -1.4979448330857603 -1.8000597961014853 0.9109206334995067 -17.30166522599089 -0.19108083206709806 0.12390285913237475 0.7551945803274334 -14.711664864185144 74.06491639676202 7.773293678748761 3.9677342299277396 28.311535700896545 16.153731755211705 101.87007146396702 27.696372234180984 -0.26595647804387906 -5.156947156582808 4.554642751462417 -0.1498690022969804 -1.5963909796138407 0.0035262258764229403 0.03276421905611598 -56.2538460035759 -0.03962563706556879 -0.008942658586431144 -56.232079031756115 -38.766189303377374 -0.029892432905891865 0.014917279593042442 -0.041848604622101035 -0.005598186264830145 -0.01621128185824147 -0.014492207371127051 -0.02500914664670934 0.01505042543347859 -36.693578723027905 -0.01600277905756784 -0.0054946214187958165 0.0069869550045342545 -0.021182200974289307 -0.0075501080264710535 0.012080244776072441 -0.0481306960686744 -0.02046600943708564 -19.76122971271157 -0.021370564742490276 0.0005094505050230564 -0.048391389416024846 -0.005237913568020849 -0.044083113357690024 -0.005858155250921653 0.0019065818444299024 -0.014505455336947698 24.055293835201883 -0.022682372841703654 -0.031228916903225663 28.86613941481873 0.021223401738923602 0.029170294027632857 28.849828797306024 -0.028870427816118618 -0.021949940435630234 4.33922480668201 1.3949331976342347 13.860079243405684 -79.34055345830956 13.766500264137257 -10.210259723137721 -62.22537767480785 23.1795648764074 -108.8161813861308 -29.599811382426527 3.7448464943557034 -1.449482315393004 -0.5028991311911131 0.05876034341697802 -8.084451787414032 -0.02420803734706007 -0.011788266933580168 44.615788871722586 0.006218714559600392 0.007016501284692141 44.578813344063214 12.476113013822582 -0.04433348064047477 -0.03929430907608872 -0.040668232403548575 -0.018224895112445228 -0.023573349897845708 0.033160469765186606 0.049803035953962446 0.003057817952809134 11.082966542538488 -0.02754952918645187 -0.0284161041910134 -0.0016499394039871443 0.04590934202462504 0.007578765974650858 -0.0036906994073533997 0.006169999530273303 0.006090338749458303 4.742849868666543 -0.036659514980435515 -0.04319855977546128 -0.0025135015812033433 -0.04833429037087913 -0.028993312649680362 0.013669196618722013 -0.03618819524892359 -0.04720421475430509 -5.61096367029471 -0.03978161621982247 0.038927121027931645 -6.76560414525188 0.04906105609042756 -0.02235296132648132 -6.688149480946764 -0.035186420398883894 0.042921171926239 0.03271144155386314 -0.04106787757840859 0.011830983360895655 8.088563813184383 3.494498920474094 -19.181599179667717 0.004117600736667529 10.373884345900107 0.02646722281980029 -5.635490433800621 -15.692213909139873 3.2280705832744516 0.017763549493491054 -0.03563975584595905 0.043307929642178396 -0.03418465516754802 4.746469344594061 0.0475003296430631 12.438337002626803 -8.218864072655936 6.837061621985305 -0.0005468498026787004 46.34634019433605 -0.01678975492823344 -4.306883125484404 -14.715856232147908 -3.817809266111518 -0.0035061610847213426 0.008852689964180078 -0.027654296648911978 0.02186065076189533 -10.788181173968791 0.016675560333394585 
0.018980518777846147 -0.028291101099183258 0.01879422983037584 0.018843892908328254 -0.012987712940483457 -0.024228789930375333 -1.451686328735767 1.047008032467712 -1.249320490501264 -0.1865007862759293 3.797091778891613 0.24562534280611287 -0.595332620924582 -1.8784579292229213 0.5927011791594892 -1.1449241153880936 -1.2028898556863115 -0.46632035342056866 -0.4435415679305365 12.005420083587639 -0.3354898384206755 0.5488406715809692 -1.46749994852558 -1.4444362497485441 0.9046080875197783 -17.25104057621492 -0.15826323594640068 0.330149964290521 0.6655266230670075 -14.588972607103104 73.74958144014465 8.24665590069474 3.807125107886968 25.67249365138028 16.371195902248257 100.22967773780121 27.82026213681419 -0.23788274452930838 -4.908901852095085 4.56639998265754 -0.16426751732218597 -1.54533628044088 -0.0008333529152465361 -0.010203388480340848 -56.21524403316337 -0.041294780691139336 -0.02793002411612023 -56.231460874408945 -38.74097780996581 0.03319096952829414 0.015136517019615832 0.0030175866555092407 0.03724194651634442 0.022493187688537693 -0.011285982127190466 0.025066980974243758 0.0021169880912182463 -36.65407158587769 0.04552247005507268 -0.04528131593085712 0.03405416320347343 0.04989056504812046 0.02368458000205437 -0.002078674189957123 -0.02266087747562411 -0.01580372755066965 -19.755249484083016 -0.013155553627612941 -0.02886116272906031 0.01764627872312631 0.01811824743824137 -0.029490365553401583 0.024617359326790975 -0.018736509713860153 0.0015442349649110749 24.01521532621782 -0.02852075002007092 0.04739695762096374 28.867558691430414 0.028408268708861036 0.0038935747555183284 28.912294745578134 -0.010576581858428157 -0.02917952268009568 4.19137491712655 1.4277405655609763 13.822670050845439 -78.82098798016968 14.617620994349792 -10.065937502726271 -57.98574115237222 22.743204459312715 -106.04467643863079 -30.317462189160715 2.9285739028632567 -0.9470213634908557 -0.4799355500408711 0.07556196924982768 -8.166034440061676 -0.0034991536593781338 -0.03715349992815325 44.551482604681226 0.01600242787631906 0.03382234487036245 44.60797562932627 12.421835451083549 0.017786677797705902 0.024077472732886282 -0.03185195368513664 -0.011322031317511633 -0.01330908977566546 -0.01802599653270709 0.010564447031324444 -0.007345369821071042 11.069948085330612 -0.029961281358428536 -0.03563101947762199 -0.02421353185721329 -0.022083708841723743 -0.04900827594699619 -0.008341784200625068 -0.02892028319077168 0.018407612983787184 4.7827444153607015 -0.0015491214805437904 -0.01653366338592384 0.008598988232232723 0.0020567267426580484 0.016590385456686743 0.0325431300126837 0.004018936374169847 -0.008454582287926138 -5.572981461334401 0.0053620615781232684 -0.003156335525218801 -6.72399946628835 0.026674358231973477 -0.02141551479066692 -6.749864098418022 0.001424936923196557 -0.0384367303875039 0.018576071140376314 -0.0005716245988814806 -0.04280238703307157 8.03136294439234 3.5250052846944655 -19.207379203406123 0.02496029222023214 10.394988995293074 0.02682637909708537 -5.611199133392698 -15.686954300958687 3.209136402313969 -0.02492283742242685 0.03214009256990133 0.04016614787373301 0.0381835985605751 4.736501470160054 -0.004417213413545333 12.466399852896389 -8.245314652631608 6.873307058056705 -0.022317930230359356 46.34244277906798 0.0003150800617675402 -4.284986027137052 -14.736599229004975 -3.831154627741688 0.0487192896110952 0.04094219225731749 0.027489226211784106 -0.04937714727712944 -10.696442779241783 -0.03393689836948738 
-0.04503765217263638 0.00841264595976205 -0.025762029356809532 0.02570088825776075 -0.0058133686206393006 0.04722494692580568 -1.1447601825386249 1.2451612998763448 -1.232282967995323 -0.18303712608462508 3.7910386406391816 0.2982029163374016 -0.5864073480299574 -1.7899498716269335 0.5374258200566633 -1.1161172932239292 -1.1303145051556307 -0.42782459920432425 -0.46070201375504294 11.871792469040448 -0.3001892084172047 0.6030031850988002 -1.4270932906611333 -1.178775400559951 0.7940086547966987 -17.26128206778316 -0.16969097107924477 0.15500954077453238 0.7161207468540993 -14.644260384025086 73.98626526034117 9.264306271578759 3.057155478122414 22.891010582934467 16.342499550134544 97.30474430651465 27.7115215160472 -0.2507541817823524 -4.882098680958022 4.534414925562816 -0.14479289899177802 -1.5839333572354781 0.024658791920690905 -0.0027236602105690576 -56.25948099016 0.0458675643546487 -0.014355638783550607 -56.28095406833525 -38.76236425074185 0.00912607231042586 0.009860175247943753 0.0053230849419372925 0.036821592622064366 -0.01543927478052867 -0.047568285491384636 0.04231574881181522 0.04018394410128557 -36.679266736815634 0.02374953184247031 -0.005617509134040727 -0.046123253831916795 -0.03599785596049015 -0.013610665144479197 0.025988482969604404 0.006758250542953527 -0.04906933649426155 -19.761337481960787 -0.014694840507375895 0.004941056062087911 0.031735063661026346 -0.018120714360499335 0.01182503034755421 -0.0192615648415851 -0.042682733194511685 -0.03454096213881345 24.09425026326169 -0.022236565626368065 0.0028434336405551374 28.853755523446125 0.01270867758626048 0.017654474220907625 28.904148434097632 0.024423073897255974 -0.017056328396702125 4.333633142697291 1.3929584756679765 13.755322555878351 -78.15003113361767 15.896448978364225 -10.117614939616416 -53.569271066695535 21.900183046554393 -102.71049117050116 -30.91035244492012 1.2277108860098276 0.39719733518600436 -0.431362221402962 0.07577041004502959 -8.173169966581302 -0.0011546586722291 -0.014071099694118998 44.530885304854316 0.02679419294288232 0.016071201269143257 44.53645158131865 12.446116353766412 0.009943826339899674 -0.01141624692176271 -0.006372825483859194 0.04179910835609525 0.014268527828466687 0.018720177299780472 0.04556918113469424 0.020324988125944632 11.060140627229577 -0.04215167803966044 0.028009321487177073 -0.006469822844542714 -0.015621568745030918 -0.025420952036410215 -0.03824929505646113 0.008160533938163718 0.029711224209130124 4.7637310160532955 0.040303071672908274 -0.022067282624242363 0.0034648761083694514 -0.010529024463882642 0.01924125260888667 0.02809162683088422 0.013441947779118023 -0.030632479648173387 -5.5826815894072315 -0.006031642763839738 0.0375854770740888 -6.709612220698629 -0.03460243307782628 -0.0034379563498139576 -6.754491141127065 -0.016941953874693595 -0.03678475444154641 -0.011414047507021512 0.008087749775143779 -0.04541519370237955 8.05252548445438 3.4790214492354523 -19.244212153981746 0.04663223803043565 10.375919427922074 0.015321408291188467 -5.645912031747979 -15.640790080936927 3.2397411342588907 -0.019197595957763353 0.025027208581557162 -0.01605880877291236 -0.03433538675246334 4.671219464442009 0.011362201012318409 12.505312990352898 -8.230902796023454 6.890505792915928 0.03366155015099306 46.38837336064302 0.002777954478274838 -4.316002906144025 -14.765534393310023 -3.806479965697783 0.016023440523308747 -0.035541888886758424 -0.049409906250511657 -0.028911188576651415 -10.716638808563586 -0.030258527714924995 
0.013900217485108593 -0.04626417117969431 0.015270124016871915 0.00809769152249049 0.009601256539364193 0.025355319389337112 -0.5149137135474232 1.439027567209085 -1.3680574639979937 -0.21065735554492376 3.689389370875601 0.2843853436341769 -0.5732220222048844 -1.6707057204562537 0.5297058088477725 -1.0511947444383243 -1.0213618638395716 -0.40921518322458345 -0.5527590356416695 11.791686539202068 -0.1718772631525141 0.5425343616616979 -1.3228095812071499 -0.8257755714086138 0.7676386941033096 -17.179044911494227 -0.1708666694965684 -0.45220512085507764 0.9501381619571452 -14.84487613223822 74.5229461199861 10.538727709485574 2.2180551637370374 20.73158850321285 15.709793487559558 94.51341056198103 26.966817072596463 -0.28832213876880897 -5.029673432844939 4.489354648861365 -0.08628587025307916 -1.587859154300748 -0.009272842817931011 -0.005487379436262714 -56.21340521937244 0.03051379797210583 0.024063364209012887 -56.19907899196328 -38.78574689152476 -0.011454366866329752 -0.016928806171491884 -0.0397054676282015 -0.03187711175366298 -0.00961405361112602 -0.0376090190294291 -0.031513616785474166 -0.020934876596347487 -36.73807422941006 0.010097575692272556 -0.048617591486574345 -0.013922475571252152 -0.0031861970715389137 0.012402342101281317 0.0473757882470246 0.04924964838205847 -0.04648042267283468 -19.75504210071759 -0.021501364748164067 0.01409877022291332 -0.006299683633947031 -0.0287638523669558 -0.04573772514491388 0.0042637057303332474 0.011161506961483625 -0.011465870766328618 24.073484200323925 0.040169332958003304 0.0075076199367750856 28.879444209454785 0.012129566103139356 -0.00599717460376465 28.84081286335808 0.04941590162393755 -0.028598017125459747 4.788536895721178 1.4967755832398348 13.800017305380543 -77.49188046066465 17.809063460815352 -10.320056206091865 -49.91132664828029 20.25990626740097 -99.90084311268275 -30.829634385917398 -1.2734761396605483 2.5069332743180905 -0.4987319770221829 0.056168928903128995 -8.116981567075182 0.007764166367073705 0.02959724350989335 44.61687221043037 -0.014989999518197154 -0.02813103372121261 44.576953729544705 12.504195153441186 -0.03785487186813989 0.030031991986254603 -0.01479526931447054 0.03698395078719058 -0.02411748183956579 -0.03277668266294949 0.014537692835869871 0.022445862068197923 11.13253773297228 0.023129156033364642 0.009972387636406697 0.04384356721808945 -0.02256860030034662 -0.029525737410163653 -0.0457399505834673 0.005803735705582636 -0.0176396864668996 4.819065010970245 0.03639753513489832 0.03328966585020226 0.005351986898044356 -0.04642089765927071 -0.021790799315583934 0.0042807171221632715 0.03429808188877685 0.006905888010675515 -5.555102725451224 0.025712903997004627 0.018885765665752122 -6.7178945800032395 0.03574258533135779 -0.01834505627521354 -6.72043469578802 -0.044310819692137834 0.02514915848717317 0.005920022454755781 -0.00851143390263115 -0.047256190297511436 8.07987935710041 3.4597590864497976 -19.18275111447684 -0.0004900722124347805 10.42729722218215 0.005393954881480296 -5.58559506962694 -15.702493778556128 3.15210103771679 -0.0359883972058697 -0.0006229052088927099 0.009872762522755608 -0.0018409938016274833 4.704963687095531 -0.031767157884461175 12.466771581669782 -8.229057144224472 6.842089002756456 0.011984833879963202 46.40577992862886 0.027227520898214536 -4.3358843836444585 -14.761278296148244 -3.866208091625909 -0.03768349902593317 -0.04791313073823685 -0.014400440796277888 -0.044824469528408885 -10.732511937732777 -0.008756157825425005 
